<?xml version="1.0" standalone="no"?>
<!DOCTYPE svg PUBLIC "-//W3C//DTD SVG 20010904//EN"
 "http://www.w3.org/TR/2001/REC-SVG-20010904/DTD/svg10.dtd">
<svg version="1.0" xmlns="http://www.w3.org/2000/svg"
 width="512.000000pt" height="512.000000pt" viewBox="0 0 512.000000 512.000000"
 preserveAspectRatio="xMidYMid meet">
<metadata>
Created by potrace 1.14, written by Peter Selinger 2001-2017
</metadata>
<g transform="translate(0.000000,512.000000) scale(0.100000,-0.100000)"
fill="#000000" stroke="none">
<path d="M2486 4062 c-2 -1 -36 -4 -77 -7 -41 -2 -85 -7 -99 -9 -14 -2 -43 -7
-65 -10 -22 -3 -50 -8 -62 -11 -13 -3 -33 -7 -45 -10 -22 -5 -112 -32 -138
-42 -8 -4 -18 -5 -22 -5 -5 1 -8 -2 -8 -6 0 -5 -6 -9 -13 -9 -17 0 -155 -65
-207 -98 -22 -14 -40 -23 -40 -20 0 3 -8 -2 -17 -11 -10 -9 -49 -38 -87 -65
-38 -27 -65 -49 -60 -49 5 -1 -3 -8 -18 -16 -16 -8 -28 -19 -28 -25 0 -6 -4
-7 -10 -4 -5 3 -10 2 -10 -3 0 -5 -21 -32 -47 -59 -86 -89 -213 -244 -213
-259 0 -3 -6 -12 -12 -19 -33 -37 -43 -50 -44 -62 -1 -7 -9 -20 -18 -28 -9 -9
-19 -27 -22 -41 -3 -13 -10 -24 -16 -24 -5 0 -6 -4 -3 -10 3 -5 2 -10 -3 -10
-5 0 -15 -13 -22 -30 -7 -16 -16 -27 -21 -24 -5 3 -9 1 -9 -5 0 -5 -13 -12
-30 -16 -16 -4 -30 -10 -30 -13 0 -4 -15 -13 -33 -21 -47 -21 -110 -90 -141
-156 -51 -109 -57 -156 -51 -430 6 -257 7 -272 21 -365 9 -61 8 -57 18 -85 32
-88 97 -167 181 -220 73 -46 106 -55 215 -60 73 -3 70 -3 70 -22 0 -10 9 -29
20 -43 11 -14 20 -30 20 -35 0 -6 14 -25 30 -43 17 -18 30 -37 30 -43 0 -5 5
-9 10 -9 6 0 10 -5 10 -10 0 -6 11 -23 25 -38 14 -15 25 -30 25 -34 0 -5 31
-40 70 -79 39 -40 70 -69 70 -65 0 4 11 -3 24 -16 38 -37 66 -58 76 -58 6 0
10 -4 10 -10 0 -5 5 -10 11 -10 6 0 29 -13 52 -29 23 -16 44 -29 47 -29 3 -1
23 -9 45 -18 22 -10 42 -18 45 -19 3 0 25 -10 50 -22 125 -60 310 -102 515
-119 139 -11 350 -2 373 16 1 2 5 3 10 4 88 19 132 32 132 40 0 5 3 7 6 3 6
-6 60 11 117 37 17 8 63 29 102 46 38 17 82 34 97 37 15 3 28 10 28 16 0 6 3
8 6 4 4 -3 28 2 55 12 26 10 50 16 53 13 4 -3 6 0 6 7 0 7 3 10 8 7 4 -2 25 4
47 14 22 11 46 19 53 20 6 0 12 5 12 12 0 6 3 8 6 5 4 -4 19 2 34 13 15 11 30
17 33 13 4 -3 9 2 13 11 3 9 13 16 21 16 7 0 25 12 38 26 14 15 25 24 25 20 0
-4 11 6 25 21 41 47 46 53 40 53 -3 0 3 9 14 21 11 12 25 33 31 49 11 26 15
27 86 29 42 1 86 6 100 11 13 5 24 7 24 5 0 -10 121 56 138 75 9 11 23 20 31
20 8 0 12 3 8 6 -3 3 3 16 14 27 23 25 68 104 73 126 2 13 18 68 31 111 1 3 5
12 8 20 4 8 11 35 17 60 6 25 12 52 15 60 39 149 63 294 60 365 -3 87 -7 109
-36 172 -10 24 -19 46 -19 50 0 4 -36 42 -80 85 -44 43 -80 85 -80 96 0 10 -3
22 -7 26 -4 3 -8 14 -9 23 -5 30 -47 158 -56 168 -4 5 -8 17 -8 27 0 10 -5 18
-12 18 -6 0 -9 3 -5 6 6 6 -38 103 -52 114 -3 3 -13 19 -21 35 -19 40 -114
167 -162 217 -10 10 -15 18 -10 18 4 1 -4 10 -17 20 -13 11 -20 20 -17 20 4 0
-15 22 -41 49 -26 26 -51 46 -55 44 -5 -2 -8 3 -8 11 0 9 -4 15 -8 13 -5 -1
-21 8 -38 21 -16 12 -44 33 -63 45 -19 12 -46 30 -60 39 -14 10 -33 21 -41 24
-8 4 -23 14 -32 22 -10 8 -18 12 -18 8 0 -4 -7 0 -16 8 -8 9 -22 16 -30 16 -8
0 -14 4 -14 10 0 5 -3 9 -7 8 -16 -3 -83 33 -83 44 0 6 -3 8 -7 5 -3 -4 -12
-2 -20 4 -7 6 -13 9 -13 5 0 -4 -18 3 -40 14 -21 11 -46 20 -55 20 -8 0 -15 5
-15 12 0 6 -3 9 -6 6 -3 -3 -31 3 -62 14 -31 11 -64 22 -72 24 -8 2 -45 12
-82 23 -37 11 -87 22 -110 25 -24 3 -54 8 -68 11 -26 6 -300 22 -304 17z"/>
</g>
</svg>
