<?xml version="1.0" standalone="no"?>
<!DOCTYPE svg PUBLIC "-//W3C//DTD SVG 20010904//EN"
 "http://www.w3.org/TR/2001/REC-SVG-20010904/DTD/svg10.dtd">
<svg version="1.0" xmlns="http://www.w3.org/2000/svg"
 width="700.000000pt" height="700.000000pt" viewBox="0 0 700.000000 700.000000"
 preserveAspectRatio="xMidYMid meet">
<metadata>
Created by potrace 1.14, written by Peter Selinger 2001-2017
</metadata>
<g transform="translate(0.000000,700.000000) scale(0.100000,-0.100000)"
fill="#000000" stroke="none">
<path d="M3278 6996 c-1 -2 -42 -6 -89 -10 -47 -4 -95 -8 -105 -10 -10 -2 -45
-7 -78 -11 -101 -12 -215 -35 -380 -76 -296 -75 -599 -199 -881 -362 -103 -60
-265 -165 -315 -204 -8 -6 -51 -40 -95 -74 -426 -331 -813 -825 -1020 -1299
-25 -58 -50 -114 -55 -125 -45 -93 -150 -427 -176 -560 -2 -11 -10 -54 -19
-95 -29 -146 -35 -191 -52 -370 -15 -162 -8 -591 12 -711 2 -13 6 -46 9 -74
21 -182 109 -547 165 -680 5 -11 25 -65 46 -120 63 -166 249 -531 312 -610 4
-6 34 -49 65 -95 171 -256 432 -534 708 -755 92 -74 370 -265 386 -265 4 0 15
-6 23 -14 46 -40 413 -212 571 -268 83 -29 268 -87 293 -92 12 -2 60 -13 107
-24 109 -27 200 -44 299 -58 25 -3 57 -8 71 -10 163 -25 682 -25 842 1 13 2
46 7 73 10 71 10 87 13 115 18 14 3 43 8 65 12 325 59 741 212 1039 384 49 28
91 51 93 51 10 0 268 180 353 247 152 119 324 280 450 422 36 41 70 79 76 85
65 68 263 353 352 508 47 80 182 351 182 364 0 3 8 24 19 47 53 118 147 417
177 562 17 81 54 301 59 350 4 33 9 71 11 85 9 46 11 524 4 605 -15 153 -21
210 -25 225 -2 8 -7 35 -10 60 -17 129 -80 384 -136 552 -348 1038 -1164 1854
-2204 2206 -167 56 -419 119 -555 137 -19 3 -46 7 -60 10 -13 2 -52 7 -86 11
-33 3 -74 8 -90 10 -33 5 -540 14 -546 10z m627 -1180 c17 -2 47 -7 68 -10
190 -29 399 -102 632 -224 65 -33 203 -129 284 -197 224 -187 389 -398 511
-650 102 -211 146 -358 188 -630 8 -59 8 -379 -1 -455 -72 -594 -420 -1133
-932 -1442 -227 -137 -507 -235 -751 -263 -33 -4 -70 -9 -84 -11 -32 -6 -328
-6 -356 0 -11 2 -45 7 -75 10 -30 3 -63 8 -74 10 -11 2 -54 11 -95 20 -219 46
-511 176 -700 311 -190 136 -373 323 -488 499 -26 39 -50 73 -54 74 -5 2 -8 7
-8 12 0 4 -16 36 -35 69 -95 170 -189 435 -211 599 -3 26 -8 49 -9 52 -9 16
-19 192 -19 320 3 416 140 813 399 1155 78 103 269 295 367 368 139 104 273
180 458 260 86 37 260 88 367 106 35 6 75 14 90 16 16 3 80 8 143 12 63 3 116
6 117 7 4 3 240 -13 268 -18z m-2349 -2382 c11 -66 68 -266 101 -354 31 -85
133 -302 166 -355 105 -168 229 -323 349 -435 l69 -65 -32 -59 c-56 -103 -76
-180 -77 -289 -1 -138 41 -265 122 -370 20 -26 34 -52 31 -58 -4 -5 -25 -19
-48 -32 -35 -18 -58 -22 -137 -22 -89 0 -100 2 -174 38 -145 69 -281 233 -375
453 -36 84 -86 239 -97 301 -3 15 -9 44 -14 63 -4 19 -11 58 -15 85 -3 28 -8
66 -11 85 -3 19 -7 123 -9 230 -2 186 9 340 35 464 6 28 12 62 15 75 7 38 56
202 73 244 16 42 21 42 28 1z m931 -1387 c90 -58 160 -96 269 -144 77 -35 269
-106 322 -118 21 -6 150 -35 174 -40 9 -2 38 -6 65 -10 26 -4 59 -9 73 -12 57
-12 419 -11 510 2 333 45 643 155 902 321 37 24 72 44 77 44 10 0 44 -77 60
-134 15 -56 7 -163 -18 -228 -67 -174 -268 -337 -539 -437 -87 -32 -247 -77
-307 -86 -22 -3 -67 -10 -100 -15 -135 -20 -391 -28 -525 -16 -103 10 -174 20
-255 38 -49 10 -100 21 -113 24 -12 2 -64 18 -115 35 -422 142 -663 400 -616
664 11 64 49 155 65 155 2 0 34 -20 71 -43z"/>
<path d="M2174 3443 c-59 -11 -85 -86 -54 -157 67 -157 195 -284 351 -347 81
-33 119 -40 224 -44 124 -3 165 20 171 96 2 35 -2 47 -26 70 -16 16 -40 29
-54 30 -14 0 -54 0 -88 1 -167 1 -304 90 -384 248 -46 89 -80 114 -140 103z"/>
<path d="M3293 2785 c-38 -16 -63 -51 -63 -87 0 -41 61 -156 120 -227 86 -104
202 -178 330 -212 71 -19 216 -21 256 -4 57 24 75 94 38 150 -19 29 -38 33
-141 36 -188 4 -310 85 -401 266 -18 34 -36 64 -42 68 -29 18 -68 22 -97 10z"/>
</g>
</svg>
